<svg id="Layer_1" data-name="Layer 1" xmlns="http://www.w3.org/2000/svg" viewBox="0 0 32.75 37.43"><defs><style>.cls-1{fill:#fff;}</style></defs><title>Conference_Objectives_Icons</title><path class="cls-1" d="M29.18,15.5l.32-1.57v-.07C29.5,5.74,24.19.44,16.13,0A14.28,14.28,0,0,0,5.35,3.89,13.55,13.55,0,0,0,1.61,14.54c.15,2.8,1.74,5.34,3,7.39l.58.94v6L0,34l1.79,1.82,6-5.89V22.17l-.18-.29c-.24-.42-.51-.85-.8-1.31-1.18-1.89-2.53-4-2.64-6.17a11.1,11.1,0,0,1,3-8.71,11.4,11.4,0,0,1,8.69-3.12c6.66.35,10.69,4.55,10.78,11.25L26.41,16l2.8,5.92-2.95,1.22-.57,5.64L17,28.05l-.2,2.55,5.08.39v6.44h2.56V31.19l3.61.28.69-6.6,4.06-1.67Z"/><path class="cls-1" d="M16.82,16.15a2.18,2.18,0,0,0,1.93-2.21l0-.27a1.21,1.21,0,0,1,1-1.07l2.11-.35a2.65,2.65,0,0,0,2-1.57,2.35,2.35,0,0,0-.2-2.28,9,9,0,0,0-7.42-4,10,10,0,0,0-8.2,3.32,7.57,7.57,0,0,0-1.53,3.08h0v0a8.9,8.9,0,0,0,0,3.85,2.19,2.19,0,0,0,1,2.11h0a1.89,1.89,0,0,0,.84.19h.31a3.67,3.67,0,0,1,1.82,1.07,3.94,3.94,0,0,1,.59,3.06l1.26.22a5.22,5.22,0,0,0-.86-4.1,3.72,3.72,0,0,0-.56-.48l2.94-.3a4.43,4.43,0,0,0-.53,2.43,13.11,13.11,0,0,1-.2,2.6l1.25.25a13.92,13.92,0,0,0,.22-2.85c0-1.68,0-2.3,1.71-2.68ZM9.05,8.55l.07-.06a2.7,2.7,0,0,0,.56.72l.87-.93a1.52,1.52,0,0,1-.4-.78A8.33,8.33,0,0,1,13,6.08a7,7,0,0,0-.35,2l1.28,0a5.09,5.09,0,0,1,.64-2.37,10.92,10.92,0,0,1,1.15-.07h.52l.45,0-.39.83,1.16.54L18,6a8.28,8.28,0,0,1,1.55.51,4.09,4.09,0,0,0-.4,3.89l1.12-.62a2.91,2.91,0,0,1,.4-2.64,7.52,7.52,0,0,1,2,2,1.05,1.05,0,0,1,.08,1.06,1.37,1.37,0,0,1-1,.81l-2.11.35a2.55,2.55,0,0,0-1.51.87,4.11,4.11,0,0,0-2-1.88c.17-.5.47-1.28.75-2l-1.19-.47c-.38,1-.61,1.58-.75,2a11.68,11.68,0,0,0-3.32-.46v1.28c2.39,0,5.48,1.26,5.91,2.83h0l0,.26c-.08,1-.61,1.08-.79,1.09L11,15.46a2.68,2.68,0,0,1,.88-1.23,2.58,2.58,0,0,1,2-.39l.22-1.26a3.9,3.9,0,0,0-3,.62,4,4,0,0,0-1.49,2.4l-1.1.12H8.37c-.18,0-.59,0-.59-1v-.14a8.55,8.55,0,0,1-.15-2.44,4.1,4.1,0,0,1,1.61.82l.76-1a4.44,4.44,0,0,0-2.1-1.16A6.26,6.26,0,0,1,9.05,8.55Z"/></svg>