<svg id="Layer_1" data-name="Layer 1" xmlns="http://www.w3.org/2000/svg" viewBox="0 0 36.96 36.96"><defs><style>.cls-1{fill:#fff;}</style></defs><title>Conference_Objectives_Icons</title><path class="cls-1" d="M21.71,8.56c.23,0,.28-.19.36-.36s.17-.28.13-.4-.09-.18-.2-.18h-.09c-.18-.13-.34,0-.44.16a.63.63,0,0,0-.12.52C21.38,8.51,21.52,8.56,21.71,8.56Z"/><path class="cls-1" d="M22.22,7.65a.29.29,0,0,1,.08.13c.11.12.06.16.26.18l.14.14c-.1,0-.29.11-.3.22s0,.19,0,.2.14.05.19.07h-.08c0,.06-.08.1-.1.16a.25.25,0,0,0,0,.12.54.54,0,0,0,0,.1,4.38,4.38,0,0,0,.51,0l.25,0a2,2,0,0,0,.26-.06c.2-.06.24-.16.17-.35a.74.74,0,0,0-.11-.24c-.06-.07-.12-.1-.18-.16l-.17-.16a1.15,1.15,0,0,1-.19-.14,5.08,5.08,0,0,1-.27-.43A1.14,1.14,0,0,0,22.32,7a.27.27,0,0,0-.23,0c-.09,0-.08.13-.08.22S22.17,7.5,22.22,7.65Z"/><path class="cls-1" d="M7.24,21.68c.15-.05.16-.23.32-.26a1.92,1.92,0,0,0,.24,0c.19,0,0-.19-.08-.22a2.36,2.36,0,0,0-.46,0c-.18,0-.33,0-.41-.15a1.13,1.13,0,0,0-.12-.18.66.66,0,0,1-.17-.23,1,1,0,0,1,0-.46,1.06,1.06,0,0,0,0-.25.61.61,0,0,0-.08-.26c0-.06-.18-.06-.25-.07a2.47,2.47,0,0,1-.38-.05.49.49,0,0,1-.24-.08.26.26,0,0,1,0-.23c0-.15.11-.26.16-.4a1,1,0,0,0,.11-.35,1.2,1.2,0,0,0,0-.27c0-.1,0-.15-.14-.14a2.14,2.14,0,0,0-.27.06s0,0-.06.05-.17.3-.31.42a.73.73,0,0,1-.52.12c-.19,0-.28-.16-.38-.3A.72.72,0,0,1,4,18.2a1.43,1.43,0,0,1-.1-.49.92.92,0,0,1,0-.29A1.83,1.83,0,0,0,4,17.1l.1-.27c.05-.1.07-.18.11-.27a.48.48,0,0,1,.2-.22.68.68,0,0,1,.32-.18c.22,0,.41,0,.63,0s.15,0,.22-.09.08-.13.13-.19.14-.06.24-.05a.38.38,0,0,1,.23.08c.09.06.14,0,.24,0s.15,0,.16.11a2,2,0,0,0,0,.24,1.67,1.67,0,0,0,.21.52.72.72,0,0,0,.17.22c.09.05.12,0,.19,0a1.72,1.72,0,0,0,0-.64,1.35,1.35,0,0,1,0-.29c0-.26,0-.5.2-.66.07,0,.14-.08.2-.13a.76.76,0,0,1,.19-.12c0-.06.13-.11.18-.16a3,3,0,0,0,.41-.46,1.86,1.86,0,0,0,.1-.2,1.27,1.27,0,0,0,0-.28c0-.17.11-.42.29-.46s.12,0,.15-.12L9,13.31c.13-.08.19-.24.32-.32s.28-.09.42-.16.14-.14.14-.3.11-.18.2-.25.19-.18.29-.24a1,1,0,0,1,.38-.09A3.85,3.85,0,0,0,12,11.81a1.18,1.18,0,0,0,.32-.19.16.16,0,0,0,0-.23c-.13-.13-.38.1-.5.17a.39.39,0,0,1-.52-.17.24.24,0,0,1,0-.26c0-.07.12-.11.16-.17a.17.17,0,0,0,0-.12c0-.07,0-.05-.08-.06a.71.71,0,0,0-.25,0l-.24.09a.62.62,0,0,1-.38,0,1.42,1.42,0,0,1,.12-.13,1.12,1.12,0,0,1,.22-.1.92.92,0,0,0,.29-.16c.13-.09.34,0,.5-.06s.37,0,.57,0a1,1,0,0,0,.45-.07c.07,0,.1-.1.16-.14a.5.5,0,0,1,.2-.08,1.32,1.32,0,0,0,.3-.09.3.3,0,0,0,.1-.46c-.05-.06-.12-.08-.17-.14a1,1,0,0,1-.08-.24c-.06-.16-.33-.1-.45-.24s0-.36,0-.51a.33.33,0,0,0-.08-.25c-.05,0-.14-.11-.16-.19s-.07-.12-.09-.17-.06-.15-.11-.18-.17.15-.21.21-.21.11-.29.19-.07.09-.18.07a.32.32,0,0,1-.16,0c-.1,0-.09-.09-.07-.2a1.26,1.26,0,0,0,.05-.28c0-.09,0-.17-.08-.21s-.09,0-.11,0,0,0,0-.08-.1-.11-.2-.14L10.72,7a.86.86,0,0,0-.57,0,.68.68,0,0,0-.16.4.86.86,0,0,1-.27.49c-.07,0-.14.12-.09.22s.2.15.2.31-.07.29-.25.42a2.11,2.11,0,0,1-.46.19c-.09.06-.15.09-.18.19a.8.8,0,0,0,0,.27c0,.15,0,.43-.13.48a.45.45,0,0,1-.3-.05c-.07,0-.08-.09-.08-.19s.14-.35.05-.51A1.76,1.76,0,0,0,8.32,9a.55.55,0,0,0-.22-.1c-.18-.07-.27-.23-.42-.31s-.33-.14-.39-.3a.71.71,0,0,1,.08-.65.86.86,0,0,1,.14-.13c.1-.09.22-.18.34-.27a3.57,3.57,0,0,0,.5-.45,2.66,2.66,0,0,1,.52-.42,2.55,2.55,0,0,1,.48-.29A.64.64,0,0,1,9.62,6,2.64,2.64,0,0,1,9.9,6a.92.92,0,0,0,.51-.2.62.62,0,0,0,.18-.52c0-.19-.32,0-.41,0s-.29.28-.47.22c0,0,0-.08,0-.13-.22,0-.1-.22-.05-.32a1,1,0,0,0,.05-.3,1,1,0,0,0,0-.35.7.7,0,0,0-.33.12.57.57,0,0,0-.11.11.55.55,0,0,0-.11.1s0,.1,0,.15a1.09,1.09,0,0,1-.05.17.88.88,0,0,1-.18.25,1,1,0,0,1-.36.22.49.49,0,0,1-.24,0L8,5.47c-.12,0-.43-.09-.52,0s0,.18-.17.17l-.12,0s0,0,0,0-.07,0-.1,0S7,5.5,7,5.44a.57.57,0,0,1,0-.18c0-.11,0-.31-.11-.35S6.67,5,6.58,5a.74.74,0,0,1-.21,0c-.08,0-.11-.08-.17-.1l0,.06c0,.09-.2.18-.27.25s-.25.27-.4.39a2.79,2.79,0,0,0-.32.28L5,6.08s-.07.13-.11.14a1.51,1.51,0,0,1-.18.26l-.09.11s-.08.06-.09.09-.1.06-.16.08v0c-.14,0-.19.17-.25.27s-.23.17-.27.32-.06.09-.07.13h0a1.78,1.78,0,0,1-.14.36,2.75,2.75,0,0,1-.15.36A4.2,4.2,0,0,0,3.22,9c-.09.39-.28.75-.4,1.12,0,.15-.06.31-.1.47a1.38,1.38,0,0,1-.28.63l-.1.15a3.31,3.31,0,0,0-.15.33,1.6,1.6,0,0,0-.12.37,1.61,1.61,0,0,1-.17.43,2.71,2.71,0,0,0-.12.51c0,.17-.08.34-.1.52s-.06.39-.06.58v.47a.28.28,0,0,0,0,.18s.06.09.08.15h0a1.27,1.27,0,0,0,.06.18.65.65,0,0,1,.05.2,2.91,2.91,0,0,1,0,.42c0,.18,0,.35,0,.53a3.43,3.43,0,0,0,.07.56c.08.28.14.75.44.86v-.06a1.46,1.46,0,0,0,0-.22c0-.06,0-.16,0-.22l-.16-.46a1.43,1.43,0,0,1-.11-.58c0-.13,0-.41.1-.48a1.91,1.91,0,0,1,.09.54,1.68,1.68,0,0,0,.06.24,2.18,2.18,0,0,1,.11.27.68.68,0,0,1,.1.21s0,.19.09.21.06.15.08.24a1.19,1.19,0,0,0,.08.41,1.08,1.08,0,0,1,.08.19,1.46,1.46,0,0,1,0,.42.87.87,0,0,0,0,.4c0,.12.12.23.16.35s.07,0,.08.08h0c0,.05.08.08.11.1a.84.84,0,0,0,.18.15c0,.07.27.15.35.17a1.35,1.35,0,0,0,.4,0,1.5,1.5,0,0,1,.37,0c.16,0,.24.05.32.2a.83.83,0,0,0,.32.35.93.93,0,0,1,.19.11.64.64,0,0,0,.19.13,1.2,1.2,0,0,1,.4.31,1.28,1.28,0,0,1,.11.2,2.12,2.12,0,0,0,.11.21c0,.07.09.08.16.12s.23.18.35.25S7.09,21.73,7.24,21.68Z"/><path class="cls-1" d="M16.79,26c0-.09,0-.18-.07-.25a.5.5,0,0,0-.21-.13l-.25,0a.31.31,0,0,1-.19-.11,1,1,0,0,0-.51-.34l-.32,0c-.15,0-.32,0-.46,0a1.69,1.69,0,0,1-.41-.24.85.85,0,0,0-.25-.13c-.07,0-.17,0-.23,0s-.08-.13-.16-.16a.82.82,0,0,0-.27,0,.36.36,0,0,0-.25.1c-.06.07,0,.14-.05.23a.24.24,0,0,1-.09,0s-.1-.07-.13-.09a.36.36,0,0,1,.13-.32c.07-.08.16-.16.12-.3a1.69,1.69,0,0,0-.21-.31l-.12-.18a1,1,0,0,0,0-.1s0,0-.05-.06a.48.48,0,0,1-.17-.1,1.86,1.86,0,0,0-.41-.23,4.68,4.68,0,0,0-.54-.07c-.17,0-.38-.05-.47-.2s0-.15-.09-.21c-.14-.21-.58-.12-.62-.43,0-.07,0-.15,0-.21a.29.29,0,0,0-.19-.11,2.43,2.43,0,0,0-.47.08,1.4,1.4,0,0,1-.5,0c-.08,0-.16,0-.24,0a.77.77,0,0,1-.19-.08.23.23,0,0,0-.21-.18.55.55,0,0,0-.34.05c-.07.06-.17.11-.16.21a.66.66,0,0,0,0,.15,1,1,0,0,1,0,.17s-.12,0-.14-.07S8,22,8,22a1.75,1.75,0,0,1,0-.33s0-.12,0-.16-.14-.05-.19-.05c-.25,0,0,.26-.18.34a.56.56,0,0,1-.22,0,.17.17,0,0,0-.16.12,1.43,1.43,0,0,0-.12.21,1.36,1.36,0,0,0-.1.21c-.12,0-.09.24-.12.31s-.11.09-.11.19a.33.33,0,0,0,.07.21c.06.08.12.15.17.23a.44.44,0,0,1,.13.25c0,.1,0,.18-.06.25A1.3,1.3,0,0,1,7,24a.94.94,0,0,0-.3.87s.07.08.08.11.11.31.11.43A2.39,2.39,0,0,0,7,25.9c0,.13.18.2.28.28a2.73,2.73,0,0,1,.27.31l.37.41a4,4,0,0,1,.29.43,2.36,2.36,0,0,0,.35.48,1.7,1.7,0,0,0,.51.28,1.2,1.2,0,0,1,.59.36,1.53,1.53,0,0,1,.14.21,2.35,2.35,0,0,1,.21.42c.06.18.09.37.17.55s.19.37.27.56h0a1,1,0,0,1,.18.45,3.07,3.07,0,0,0,.06.53c.05.18.11.36.17.54l.09.22c0,.1.09.18.12.27a2.68,2.68,0,0,1,.07.27,1.63,1.63,0,0,0,.33.49c.17.18.38.28.47.52s0,.3.16.43a4.26,4.26,0,0,1,.35.38,5.56,5.56,0,0,0,.51.47,1.45,1.45,0,0,0,.17.18c.06,0,.18.07.22.13s.27.13.41.16.17,0,.25.05a.75.75,0,0,0,.3,0c.06,0,.12-.08.08-.15s-.11-.07-.16-.08a1.6,1.6,0,0,1-.44-.13,1.22,1.22,0,0,1-.19-.12c-.05,0-.12-.13-.16-.13s-.08-.1-.12-.14a.64.64,0,0,1-.1-.18c0-.1,0-.32,0-.39s-.12-.06-.16-.09l-.12-.11a.28.28,0,0,1,0-.29c0-.08.12-.27.07-.36s-.27,0-.24-.18l.16-.06c0-.14,0-.23.14-.28a.61.61,0,0,1,.18,0,.78.78,0,0,1,.21,0s.26-.18.12-.24a.19.19,0,0,0,0-.08c-.1-.06-.17-.18-.27-.23s-.1,0-.11-.13,0-.09.09-.1h.54c.07,0,.09-.06.13-.07l.12-.26a.61.61,0,0,1,.11-.21,1.37,1.37,0,0,0,.16-.18,1.11,1.11,0,0,0,.07-.16.8.8,0,0,0,.11-.35c0-.23-.14-.53.06-.68s.29-.16.42-.21.44-.16.55-.19a.41.41,0,0,0,.32-.3c0-.15.1-.29.14-.43a1.65,1.65,0,0,0,.06-.49,2.28,2.28,0,0,1,0-.27,2.45,2.45,0,0,0,0-.38.5.5,0,0,1,.11-.34c.06-.06.12-.13.19-.19s.15-.09.16-.14.12-.13.15-.18a.72.72,0,0,0,.13-.19.51.51,0,0,0,0-.25A.78.78,0,0,0,16.79,26Z"/><path class="cls-1" d="M14.84,34.67v.1c0,.07,0,0,.08.07s.05.07.14.07.11,0,.11-.09a1.34,1.34,0,0,0,0-.2C15.1,34.56,14.85,34.51,14.84,34.67Z"/><path class="cls-1" d="M19.16,4.8l0,0h0Z"/><path class="cls-1" d="M19.84,4.67c-.14,0-.7-.07-.7.15l0,0,0,0h0c-.06.08-.09.15-.18.09s-.07-.15-.18-.18-.16.08-.18.13a.65.65,0,0,0,0,.31.92.92,0,0,0,.16.27.29.29,0,0,0,.28.11,2.8,2.8,0,0,0,.71,0A.58.58,0,0,0,20,5.34a1.18,1.18,0,0,0,.21-.18C20.4,4.89,20.07,4.7,19.84,4.67Z"/><path class="cls-1" d="M18.65,4.07s0-.09,0-.13l.09-.08a.86.86,0,0,0,.16-.18c0-.08,0-.17,0-.24s-.18-.12-.13-.25a.54.54,0,0,1,.22,0c.07,0,.11.08.2.06,0-.19,0-.22-.18-.28a.51.51,0,0,1-.25-.23c-.16,0-.24-.17-.27-.3s0-.34-.14-.35v0a2.27,2.27,0,0,1-.4-.29.3.3,0,0,1-.14-.28,2.13,2.13,0,0,0,0-.25c0-.11,0-.08-.15-.06a.86.86,0,0,0-.27.05.54.54,0,0,1-.33.05,1.08,1.08,0,0,0-.36,0,.59.59,0,0,0-.25.17,1.11,1.11,0,0,1-.64.21,1,1,0,0,0-.31.08c-.11.05-.13.14-.21.19s-.39.15-.53.19-.25.26-.24.49c.1,0,.22,0,.32,0s.1.06.13.16a.66.66,0,0,1,.06.31c0,.18-.1.31-.1.5s0,.12-.13.2-.09.14-.13.21a.94.94,0,0,1-.12.18c0,.06-.06.06-.06.15s0,.08.06.1a.49.49,0,0,0,.24,0c.09,0,.17,0,.22-.1s0-.21.12-.21a.48.48,0,0,1-.14.36s0,0,0,0,0,0,0,0a.1.1,0,0,0-.08.07c-.12,0-.17.23-.23.3S14.55,5,14.5,5s-.13.12-.16.17.05.38.11.47.2.24.27.38,0,.37.13.51.18.1.26.15l.13.08s.07.1.12.11a.52.52,0,0,0,.35,0c.14,0,.17-.07.2.07s0,.2.11.23.29,0,.39,0,.2-.06.24-.2.08-.16.11-.25,0-.1,0-.16c-.23,0,0-.49.09-.56s0,0,0,0c.2-.06.08-.43.14-.56s.16-.09.22-.16.1-.18.25-.21A3,3,0,0,0,18,4.87a.59.59,0,0,1,.15-.4c.09-.12.12-.33.3-.35S18.59,4.15,18.65,4.07Z"/><path class="cls-1" d="M13.44,10.58h0l0,0Z"/><path class="cls-1" d="M13.35,11.43c.07.09.17.07.27.07a1.58,1.58,0,0,0,.31,0c.12,0,.11-.12.11-.23A.6.6,0,0,0,14,11c0-.09,0-.17-.1-.24s-.3-.14-.45-.21h0l0,0,0,0a.22.22,0,0,0-.25-.21c-.09,0-.17.16-.24.24l-.23.28c-.09.1-.15.15-.15.3.22.12.52,0,.74,0C13.31,11.27,13.29,11.36,13.35,11.43Z"/><path class="cls-1" d="M9.67,6.24a.6.6,0,0,0-.33.08c-.09.06-.37.29-.31.41H9c0,.11.21,0,.28,0a1.32,1.32,0,0,1,.34,0c.07,0,.26,0,.3-.07s-.07-.21-.1-.27S9.77,6.26,9.67,6.24Z"/><path class="cls-1" d="M10.23,4.3c-.05,0-.15.1-.18.18a.44.44,0,0,0,0,.32c.15.27.58.21.8.13s.47,0,.53.16-.18.25-.32.35-.15.12-.11.2.23.08.3.06a.33.33,0,0,1,.07-.13s.09-.09.1-.14.23,0,.26.09-.14.23-.22.28-.17,0-.22.16,0,.19,0,.29a.08.08,0,0,1-.11,0c-.07-.12-.66-.07-.68.11h0a.19.19,0,0,0,0,.08,1.08,1.08,0,0,0,.51.08c.08,0,.15,0,.2,0a1.45,1.45,0,0,1,.19.23,2.65,2.65,0,0,0,.38.37.56.56,0,0,0,.42.06c0-.13-.29-.43-.19-.52s.41.26.52.28c.29,0,.12-.35,0-.44s-.3-.32-.17-.53a.51.51,0,0,1,.3,0c.11,0,.14.14.23.2a.38.38,0,0,0,.3,0c.06,0,.24-.16.24-.22a1.67,1.67,0,0,0,.16-.12c-.07-.09-.25-.1-.35-.16A1.25,1.25,0,0,1,13,5.48c0-.07-.15-.16-.15-.26s0-.11.07-.16a2,2,0,0,0,.05-.24c0-.36-.32-.39-.56-.49a1.29,1.29,0,0,1-.3-.22s0-.05-.09-.06a.31.31,0,0,0-.19,0,.15.15,0,0,0,0,.06.32.32,0,0,0-.37-.29,1.17,1.17,0,0,0-.25.07.39.39,0,0,0-.2.18.78.78,0,0,0-.16.2.37.37,0,0,1,0-.18s0,0,0-.07,0-.06,0-.08h0a.06.06,0,0,0,0-.06.79.79,0,0,0-.38.18A2,2,0,0,1,10.23,4.3Z"/><path class="cls-1" d="M7.55,4.83h0v0Z"/><path class="cls-1" d="M7.34,4.57c.1,0,.11,0,.15.1a.28.28,0,0,1,0,.15h0l0,0v0a.41.41,0,0,0-.26.1.88.88,0,0,0-.06.28c0,.19.1.15.25.15a.45.45,0,0,0,.33-.07.46.46,0,0,1,.35-.06c.11,0,.18.07.26,0a2.59,2.59,0,0,0,.14-.29,2.11,2.11,0,0,0,.16-.3.51.51,0,0,1,.18-.26c.07-.1.19-.09.1-.23S8.8,4,8.66,4a.31.31,0,0,0-.1-.29.7.7,0,0,0-.3-.12A.42.42,0,0,0,8,3.66c-.06,0-.29.12-.32.18A.74.74,0,0,0,7.36,4a1.4,1.4,0,0,0-.22.32C7.07,4.49,7.2,4.54,7.34,4.57Z"/><path class="cls-1" d="M9.26,4.36l.05,0c.12,0,.18-.08.32-.08s.21,0,.32,0,.37-.29.47-.34a.38.38,0,0,0,0-.15l-.12,0c0,.12-.15.12-.17,0-.18,0-.69-.08-.63.22C9.35,4.1,9.08,4.2,9.26,4.36Z"/><path class="cls-1" d="M8.68,5.06a.22.22,0,0,0,0,.21h.2a.24.24,0,0,0,.05-.14l0,0A.42.42,0,0,0,8.68,5.06Z"/><path class="cls-1" d="M9.32,3.68c.07-.17.27-.18.42-.23A.61.61,0,0,0,10,3.18v0l.1,0c0-.19,0-.16.17-.21s.25-.06.23-.17a.66.66,0,0,0-.46,0c0,.21-.1.3-.31.28.05-.06.16-.08.12-.2a1,1,0,0,0-.78.34c-.07.07-.21.24-.16.37S9.18,3.69,9.32,3.68Z"/><path class="cls-1" d="M32.91,24.87c-.1.24-.46.34-.57.57-.22.06-.28,0-.33.27a4.88,4.88,0,0,0-.12.55,1.71,1.71,0,0,1-.17.39c-.06.1-.2.15-.24.32a2.52,2.52,0,0,0-.09.67c.36,0,.55-.06.66-.38a.85.85,0,0,0,.19-.35c.14-.26.33-.53.46-.82l.17-.42c.05-.15.15-.27.19-.41a1.3,1.3,0,0,0,0-.52C33,24.4,33,24.76,32.91,24.87Z"/><path class="cls-1" d="M29.33,13l0-.2c-.11,0-.35-.1-.38,0S29.21,13,29.33,13Z"/><path class="cls-1" d="M30.71,12.78a.33.33,0,0,0-.1-.06c-.09,0-.34,0-.26.16s.28.07.38.06,0-.11,0-.13Z"/><path class="cls-1" d="M25.66,11.9c.06.08.19.08.28.08a1.56,1.56,0,0,0-.09-.65c-.06-.15-.09-.4-.32-.38,0,.05,0,.09,0,.15l0,.1c0,.13,0,.1.06.21s.18.1.13.22S25.58,11.8,25.66,11.9Z"/><path class="cls-1" d="M7.46,18.32c.14.13.18.3.42.27.09,0,.51,0,.53-.14s-.09-.13-.13-.15-.12-.11-.2-.14S8,18,7.92,18a1.3,1.3,0,0,0-.15-.18,1.14,1.14,0,0,0-.26-.09,1.06,1.06,0,0,0-.31,0,1.43,1.43,0,0,0-.51.05c-.14.05-.25.13-.38.19a.2.2,0,0,0,0,.11.33.33,0,0,0,.17,0A.17.17,0,0,0,6.63,18,.3.3,0,0,1,6.81,18L7,18a.14.14,0,0,0,.08.05h0A3,3,0,0,1,7.46,18.32Z"/><path class="cls-1" d="M8.52,19a1.45,1.45,0,0,0,.35.07l.27.05a3.27,3.27,0,0,0,.54,0c.11,0,.13-.07.09-.18s-.16-.16-.29-.23a1.4,1.4,0,0,0-.7-.18.09.09,0,0,1-.06,0h0s0,.07,0,.11.07.09.12.12-.24,0-.35.08S8.46,19,8.52,19Z"/><path class="cls-1" d="M10,19.16c.05.11.28.1.39.1s.11-.22,0-.3-.27-.07-.32,0l0,0C10,19,10,19.08,10,19.16Z"/><path class="cls-1" d="M10.85,3.67a2.64,2.64,0,0,0,1-.06c.09,0,.32-.07.35-.17s-.17-.2-.25-.1l-.12,0v.05h0a1.31,1.31,0,0,1-.28,0c-.13,0-.14-.11-.2-.2s0-.12-.15-.14-.21,0-.3,0,.1.08.13.14,0,.11,0,.16S10.82,3.52,10.85,3.67Z"/><path class="cls-1" d="M10.23,3.49a.62.62,0,0,0,.31,0,.33.33,0,0,0,.16-.24c-.06,0,0-.1-.08-.1v.1C10.36,3.21,10.22,3.2,10.23,3.49Z"/><path class="cls-1" d="M11.11,2.78s.1.05.07.05h0c.05-.06.29,0,.33-.12s-.06-.11-.06-.17,0-.07,0-.13-.44-.06-.5.11S11,2.68,11.11,2.78Z"/><path class="cls-1" d="M12.12,2.64s0-.09.05-.12a.15.15,0,0,1,.11-.06c.11,0,.23-.08.34-.12s.18-.12.25-.25v0s.06,0,.06-.09a3.9,3.9,0,0,0,.46-.12c.15,0,.2,0,.19-.19a1.87,1.87,0,0,0-.53.05,1.62,1.62,0,0,0-.39.21c-.08,0-.17.08-.25.14a1.25,1.25,0,0,1-.31.12c-.08,0-.2.11-.22.2a1.64,1.64,0,0,0,0,.22A.23.23,0,0,0,12.12,2.64Z"/><path class="cls-1" d="M12.34,3.17h.16a.19.19,0,0,1,.11.07c.14.09.28,0,.39-.14s0,0,.05-.09V2.85c0-.08,0-.2,0-.25s.23,0,.33,0a.56.56,0,0,0,.25-.05c.05,0,.08-.11.13-.15a.75.75,0,0,1,.43-.18.55.55,0,0,0,.33-.09A2.21,2.21,0,0,0,15,1.76l.08-.14s.09-.08.09-.09h0a.93.93,0,0,0-.5-.09,2.38,2.38,0,0,0-.37.06.34.34,0,0,0-.22,0s0,.07-.05.12a.87.87,0,0,1-.09.11.89.89,0,0,1-.08.17.53.53,0,0,1-.15.11,1.71,1.71,0,0,1-.27.2,2.68,2.68,0,0,0-.27.07,2.08,2.08,0,0,1-.57.15l0,0c-.08,0,0,0-.08,0s0,.2,0,.29,0,.12-.13.14a.38.38,0,0,1-.21,0s-.05,0-.1,0-.24.11-.23.2S12.22,3.17,12.34,3.17Z"/><path class="cls-1" d="M28,2.85,27.9,3c0,.12-.09.22.07.31a1.61,1.61,0,0,1,.28.17c.11.09.17.17.27.26a.85.85,0,0,0,.14.1c.06,0,.11,0,.16,0s.07.26-.06.18-.11-.15-.23,0,0,.08-.07.12l-.08.08c-.05,0-.18.1-.19.17h0c0,.07-.1.18-.15.22s-.07.07-.08.14-.11,0-.18.07a.67.67,0,0,0-.11.18c0,.08.09.21.06.26s-.43.06-.5.06h-.29c0-.09.07-.17.13-.22A.18.18,0,0,1,27,5c.15,0,.28.06.4,0a.26.26,0,0,0,.13-.28c0-.15-.29-.26-.42-.32a2.52,2.52,0,0,0-.34-.15,2.27,2.27,0,0,0-.6-.23c-.13-.05-.43-.06-.5-.2s-.21-.07-.32-.09a1.88,1.88,0,0,0-.34,0A.61.61,0,0,0,24.5,4a2.34,2.34,0,0,0-.27.55c-.05.22-.13.42-.17.64a.58.58,0,0,1-.25.37c-.06.05-.13.09-.19.15a.38.38,0,0,0-.07.22,1.54,1.54,0,0,0,0,.48c0,.08.14.32.25.33s.19.07.26.07.08,0,.13,0,.05-.09.08-.12a.29.29,0,0,1,.24-.07.81.81,0,0,1,.21.1c.07.07.08.19.14.26s.22.11.22.2a.26.26,0,0,1,.12.35.35.35,0,0,0-.26.18c-.12,0-.2.15-.27.22a.81.81,0,0,1-.3.23c0,.06-.13.1-.18.14s-.08.12-.13.19a.78.78,0,0,1-.35.32,1.16,1.16,0,0,1-.24.26.85.85,0,0,1-.28.22c-.24.06-.5-.07-.75,0,0,.1.09.16.15.23a1,1,0,0,0,.26.19c.14.06.42.19.46.36s0,.19.05.26,0,.18-.07.22,0,.05,0,.07c-.24,0-.49,0-.72.06s-.46,0-.69,0a5.51,5.51,0,0,0-.09.71c0,.17,0,.32.05.5a.44.44,0,0,0,.16.38c.08.07.24.24.34.25v0a1.51,1.51,0,0,0,.67,0,2,2,0,0,0,.35-.07c.1,0,.18-.15.29-.17s.18-.23.25-.37l.11-.22a2,2,0,0,0,0-.24h0a.22.22,0,0,1,.1-.17.87.87,0,0,1,.09-.11.52.52,0,0,0,.06-.13.29.29,0,0,1,.2-.19.74.74,0,0,1,.33-.05.41.41,0,0,0,.26-.09.94.94,0,0,1,.62-.1.77.77,0,0,1,.27.08c.07.06.11.16.18.22s.14.1.19.15l.22.17a2.23,2.23,0,0,1,.24.19s.11.16.17.17.11.11.14.16a.2.2,0,0,1,0,.22c-.1.18-.24.09-.39.06s-.19,0-.23,0,0,.2,0,.24.2.08.3.12a.41.41,0,0,0,.22.07,1.71,1.71,0,0,1,.33-.48.31.31,0,0,0,.12-.24c0-.07.05-.25,0-.28v0a1.51,1.51,0,0,1-.37-.25.76.76,0,0,1-.23-.13c-.07,0-.23-.1-.27-.17a.48.48,0,0,1-.23-.16c0-.07-.14-.23-.13-.3a.37.37,0,0,1,.18,0c.06,0,.1.11.17.14a2.05,2.05,0,0,1,.36.24c.12.08.27.14.4.22s.24.18.26.29.11.19.15.25a1.66,1.66,0,0,0,.16.21,1.7,1.7,0,0,1,.22.15,1.88,1.88,0,0,0,.12.18,1.15,1.15,0,0,1,.18.37l.11,0c0,.06.09.06.1.14h.13a1.76,1.76,0,0,0,0-.33.53.53,0,0,0-.13-.31c-.13-.19-.12-.58.22-.51v0c.06,0,.07.11.1.17a.82.82,0,0,0,.12.2l.18.19c0,.05.12.15.18.17a.47.47,0,0,0,.62.34,1.23,1.23,0,0,1,.39-.07h.45a1.33,1.33,0,0,1,.1.24,3.23,3.23,0,0,1,.06.33,1.85,1.85,0,0,1-.06.58c0,.13,0,.15-.13.2a.61.61,0,0,1-.3.05c-.23,0-.45,0-.67-.06a4.46,4.46,0,0,1-1.12-.37.61.61,0,0,0-.33,0c-.14,0-.09.16-.11.28s-.09.13-.22.13a.53.53,0,0,1-.34-.11,1.75,1.75,0,0,0-.4-.22c-.12,0-.28,0-.4-.06a4,4,0,0,1-.68-.19.43.43,0,0,1-.13-.27c0-.14,0-.24,0-.38s-.34-.23-.56-.23-.51,0-.76,0a2.61,2.61,0,0,0-.4,0l-.3.1c-.24.07-.47.16-.71.22s-.43.16-.52,0-.37,0-.45.17h0c-.06.08-.11.12-.17.21a1.07,1.07,0,0,1-.15.22,1.37,1.37,0,0,0-.34.45c0,.1,0,.23,0,.33a.46.46,0,0,1-.2.26,2.36,2.36,0,0,1-.28.12,1.37,1.37,0,0,0-.24.18.37.37,0,0,0-.14.29c-.11,0-.1.19-.14.28l-.1.18-.09.16a.49.49,0,0,0-.08.18.82.82,0,0,0-.32.75.87.87,0,0,1,.12.33,1.67,1.67,0,0,1,0,.39.42.42,0,0,1-.12.34.53.53,0,0,0-.1.37,3.62,3.62,0,0,0,0,.57c0,.18.17.28.19.45s.08.1.14.15a.62.62,0,0,1,.18.18,1.37,1.37,0,0,1,.23.19,2,2,0,0,1,.21.2,5.63,5.63,0,0,0,.45.38c.14.1.27.23.41.34a.91.91,0,0,0,.52.23c.24,0,.45,0,.68,0s.44-.07.66-.09a1.86,1.86,0,0,0,.61-.22l.29-.11a.78.78,0,0,1,.31,0c.09,0,.18.11.26.12s.11.09.15.13a.67.67,0,0,0,.14.15.79.79,0,0,0,.41.06.33.33,0,0,1,.34.16.63.63,0,0,1,.09.31,1.28,1.28,0,0,1-.09.32c0,.09,0,.21-.05.29a1.66,1.66,0,0,0,0,.63c.05.21.28.31.36.5a2.58,2.58,0,0,1,.23.54A2.69,2.69,0,0,1,27,24a1.22,1.22,0,0,1,0,.54c-.07,0-.14.14-.19.2a1.76,1.76,0,0,0-.27.4l-.14.26a1.71,1.71,0,0,0-.08.64,2.09,2.09,0,0,0,.14.52,5.39,5.39,0,0,1,.06,1.27,2.56,2.56,0,0,0,.06.62,2.75,2.75,0,0,1,0,.58,1.45,1.45,0,0,1,0,.29.46.46,0,0,0,0,.26c.08.14.56.11.7.07s.45-.13.65-.21a2.75,2.75,0,0,0,.58-.32,5.06,5.06,0,0,0,.51-.35,1.89,1.89,0,0,0,.49-.56,3.56,3.56,0,0,1,.31-.58c.13-.15.34-.19.45-.37a1.59,1.59,0,0,0,.17-.6c0-.21.18-.33.24-.52h0c0-.11.19-.16.28-.23a1.74,1.74,0,0,0,.26-.19,1.27,1.27,0,0,0,.42-.31.93.93,0,0,0,.2-.41,3.68,3.68,0,0,0,0-1.1,2.13,2.13,0,0,1,.12-1,3.89,3.89,0,0,1,.41-.5c.13-.17.29-.36.42-.51a3.31,3.31,0,0,0,.27-.26,1.78,1.78,0,0,0,.24-.39,5.38,5.38,0,0,0,.39-.7.71.71,0,0,0,.2-.37,4.78,4.78,0,0,0,.23-1.41.47.47,0,0,0-.39.2c-.13.06-.35.27-.5.2a.4.4,0,0,1-.21-.33.64.64,0,0,0-.15-.42,2.61,2.61,0,0,1-.23-.25,2.31,2.31,0,0,1-.19-.52,1.57,1.57,0,0,0-.31-.49,1.69,1.69,0,0,1-.27-.49c-.17-.39-.32-.72-.5-1.08a3.91,3.91,0,0,1-.24-.51c0-.08-.09-.22.05-.21s.17.1.22.16a3.89,3.89,0,0,1,.25.5c.09.17.19.35.3.53a4.51,4.51,0,0,1,.28.49,5.09,5.09,0,0,0,.3.5,3.06,3.06,0,0,1,.32.78,2.78,2.78,0,0,0,.26.8c.3.07.57-.26.77-.44s.33-.51.6-.61a1.21,1.21,0,0,1,.21-.25c.09-.11.14-.23.23-.32s.09-.18.11-.28a1,1,0,0,0,0-.3,2.81,2.81,0,0,0,0-.29,1.3,1.3,0,0,0-.1-.25c-.06-.06-.15-.11-.22-.19s-.11-.23-.16-.24-.15-.13-.25-.05-.24.33-.23.09c-.06,0-.1-.18-.14-.23s-.12-.14-.18-.21a1.71,1.71,0,0,1-.32-.44h0s0,0,0,0h0c0-.13,0-.19.13-.14s.12.16.18.24.33.23.43.39a.58.58,0,0,1,.51.25.71.71,0,0,0,.28.16,1.67,1.67,0,0,0,.39,0,.28.28,0,0,1,.3.18c.13.21.3.44.41.66a1.46,1.46,0,0,1,.12.33,7.39,7.39,0,0,1,.21.75c.05.24.13.49.19.74s.06.57.25.66l0-.16A18.4,18.4,0,0,0,28,2.85Zm-.66,3.63a1.56,1.56,0,0,1-.48.08c0,.23.41.26.3.49a.36.36,0,0,1-.07.1s-.1,0-.13,0-.07.13-.07.23a.35.35,0,0,1,0,.23.8.8,0,0,1-.15.21.32.32,0,0,1-.22.1,1.07,1.07,0,0,1-.27-.08.41.41,0,0,0-.31,0,.39.39,0,0,1-.26.07c-.12,0-.58,0-.45-.24s.23-.12.32-.15a.88.88,0,0,0,.27-.1A.49.49,0,0,0,26,7c0-.1,0-.2-.07-.3s-.11-.15-.09-.21h.06c-.07,0-.15-.13-.2-.17s-.1-.14-.15-.2A.76.76,0,0,0,25.43,6s-.09-.06-.1-.08.15-.17.19-.24,0-.19,0-.28a.38.38,0,0,1-.08-.29c0-.07.13-.15.19-.19a.51.51,0,0,1,.3-.09,1,1,0,0,0,.17,0c.12.18-.08.39-.13.56a1.09,1.09,0,0,0,.05.54.54.54,0,0,0,.58.39c.13,0,.26-.07.39-.09a1.61,1.61,0,0,1,.38,0C27.53,6.27,27.42,6.42,27.29,6.48Zm4.1,4.81a1.71,1.71,0,0,1-.75-.08c-.12-.05-.67-.26-.71,0s-.42,0-.44.11c-.22-.06-.34-.38-.36-.58a1.54,1.54,0,0,1,.11-.72c.16-.1.19-.16.37,0s.15.19.16.38.67.12.59-.12a.26.26,0,0,1-.21-.38s.22-.14.28-.09,0,.23,0,.31c.12.32.58.45.8.68C31.41,10.84,31.38,11.14,31.39,11.29Zm2.16,1.08c0,.11-.15.12-.28.08-.46-.15-.54-.78-.67-1.15h0c-.06-.22-.2-.23-.35-.34a.79.79,0,0,1-.24-.42c-.12-.29-.16-.65.18-.8.12-.05.3-.05.35.1s-.11.27-.14.42c-.06.33.28.57.53.67,0,0,0,0,.07.05a.63.63,0,0,1,.34.12.2.2,0,0,1-.13.29c0,.14.15.19.21.29a.91.91,0,0,1,.14.3A.86.86,0,0,1,33.55,12.37Z"/><path class="cls-1" d="M18.48,37A18.48,18.48,0,0,1,5.41,5.41,18.48,18.48,0,0,1,31.55,31.55,18.36,18.36,0,0,1,18.48,37Zm0-36.64A18.17,18.17,0,1,0,36.65,18.48,18.17,18.17,0,0,0,18.48.32Z"/></svg>