<svg id="Layer_1" data-name="Layer 1" xmlns="http://www.w3.org/2000/svg" viewBox="0 0 34.4 34.39"><defs><style>.cls-1{fill:#fff;}</style></defs><title>Conference_Objectives_Icons</title><path class="cls-1" d="M34.36,1.39,34.4,0,33,0A26,26,0,0,0,15.09,7.69l-.24.24L8.34,5l-.2.21L2.21,11.12,0,13.33l.94.94,2.51-2.5,5,2.63,4.82,4.82.46.46-3.71,3.7.94.94,3.71-3.7.48.48L20,25.91l2.64,5-2.51,2.51.94.93,2.21-2.21,6.13-6.13-2.93-6.5.24-.24A26.08,26.08,0,0,0,34.36,1.39ZM8.63,6.58l5.22,2.35L9.39,13.38l-5-2.6Zm13.56,7.5L20.32,12.2l-5.14,5.14-3-3L17,9.56a23.44,23.44,0,0,1,14.68-6.8,23.43,23.43,0,0,1-6.81,14.67l-4.78,4.78-3-3Zm5.63,11.68L23.61,30,21,25l4.45-4.45Z"/><path class="cls-1" d="M14.69,25.19A35,35,0,0,1,4,30.37a39.75,39.75,0,0,1,5.19-10.7L10,18.58,7.78,17.05,7,18.14A41.52,41.52,0,0,0,.82,31.93L.4,33.87l2-.35a37.2,37.2,0,0,0,13.91-6.19l1.07-.79L15.76,24.4Z"/><path class="cls-1" d="M28.19,9.73a3.53,3.53,0,1,0-3.53,3.54A3.54,3.54,0,0,0,28.19,9.73Zm-5.73,0a2.2,2.2,0,1,1,2.2,2.21A2.2,2.2,0,0,1,22.46,9.73Z"/></svg>