<svg id="Layer_1" data-name="Layer 1" xmlns="http://www.w3.org/2000/svg" viewBox="0 0 41.17 36.48"><defs><style>.cls-1{fill:#fff;}</style></defs><title>Conference_Objectives_Icons</title><circle class="cls-1" cx="7.34" cy="13.71" r="5.74"/><path class="cls-1" d="M12.24,27.55a10.1,10.1,0,0,0,2.41-1.39,6.28,6.28,0,0,0-.33-3.08,6.39,6.39,0,0,0-2.81-3.25,6.5,6.5,0,0,1-4.23,1.46,6.42,6.42,0,0,1-3.89-1.46,5.45,5.45,0,0,0-2.48,2,5.67,5.67,0,0,0-.77,4.35h0a7.83,7.83,0,0,0,2.27,1.52c1.61.71,3,.67,5.2.59A12.18,12.18,0,0,0,12.24,27.55Z"/><circle class="cls-1" cx="33.8" cy="13.71" r="5.74"/><path class="cls-1" d="M40.78,23.08A6.39,6.39,0,0,0,38,19.83a6.5,6.5,0,0,1-4.23,1.46,6.42,6.42,0,0,1-3.89-1.46,5.45,5.45,0,0,0-2.48,2,5.67,5.67,0,0,0-.77,4.35h0a7.83,7.83,0,0,0,2.27,1.52c1.61.71,3,.67,5.2.59a12.23,12.23,0,0,0,4.64-.72,10.21,10.21,0,0,0,2.4-1.39A6.28,6.28,0,0,0,40.78,23.08Z"/><path class="cls-1" d="M20.55,2.94a15.06,15.06,0,0,1,9.74,3.73l3.51-1A18.67,18.67,0,0,0,21.31,0a18.87,18.87,0,0,0-14,5.69l3.3,1A15,15,0,0,1,20.55,2.94Z"/><path class="cls-1" d="M20.72,33.54A15,15,0,0,1,11,29.8l-3.51,1A18.73,18.73,0,0,0,20,36.46a18.87,18.87,0,0,0,14-5.68l-3.3-1A15,15,0,0,1,20.72,33.54Z"/></svg>