<svg id="Layer_1" data-name="Layer 1" xmlns="http://www.w3.org/2000/svg" viewBox="0 0 40.62 36.49"><defs><style>.cls-1{fill:#fff;}</style></defs><title>Conference_Objectives_Icons</title><path class="cls-1" d="M39.83,17.93h0a2.84,2.84,0,0,0-4,0s-4.77,3.77-5.57,4.28a.12.12,0,0,0-.05.16A5.7,5.7,0,0,1,31,25.2a4.1,4.1,0,0,1-4.6,3.41l-10.06-2h-.07a.67.67,0,0,1,.1-1.33h.07l10.2,2A2.77,2.77,0,0,0,29.65,25v0a2.18,2.18,0,0,0-1.79-2.52L12,19.72a3.21,3.21,0,0,0-2.36.83L.39,29.4a1.27,1.27,0,0,0,0,1.79l4.7,4.91a1.27,1.27,0,0,0,1.79,0l2.5-2.4A2.77,2.77,0,0,1,11.73,33l12.49,2.14a2.77,2.77,0,0,0,2.38-.72L39.78,21.8A2.71,2.71,0,0,0,39.83,17.93Z"/><polygon class="cls-1" points="15.38 13.79 15.38 18.93 12.11 18.41 12.11 14.77 15.38 13.79"/><polygon class="cls-1" points="19.94 12.13 19.94 19.66 16.67 19.14 16.67 13.46 19.94 12.13"/><polygon class="cls-1" points="24.51 10.26 24.51 20.39 21.23 19.87 21.23 11.72 24.51 10.26"/><polygon class="cls-1" points="29.07 7.15 29.07 19.56 25.8 20.42 25.8 9.97 29.07 7.15"/><polygon class="cls-1" points="33.63 4.25 33.63 18.36 30.36 19.22 30.36 6.48 33.63 4.25"/><path class="cls-1" d="M31.28.74l-1.68.74,1.12.81a35.07,35.07,0,0,1-12.58,8.35,28,28,0,0,1-6.67,1.76l0,.45,0-.45.09.89a28.51,28.51,0,0,0,6.87-1.81,35.64,35.64,0,0,0,6.63-3.37,35.12,35.12,0,0,0,6.38-5.29l1.12.82.2-1.82L33,0Z"/></svg>