<svg id="Layer_1" data-name="Layer 1" xmlns="http://www.w3.org/2000/svg" viewBox="0 0 24.21 39.65"><defs><style>.cls-1{fill:#fff;fill-rule:evenodd;}</style></defs><title>Conference_Objectives_Icons</title><path class="cls-1" d="M23.41,10.37a7.53,7.53,0,0,1-2.13,2.73,2.91,2.91,0,0,0-.63-.43l0,0-4.95-2.32L10.69,8l0,0a2.55,2.55,0,0,0-.88-.2,7.7,7.7,0,0,1,.72-3.45l.08-.17,12.92,6-.08.17ZM14,14l3.78,1.77a1.14,1.14,0,0,0,1.16,0l.89-.45a.47.47,0,0,0,0-.87l-5-2.33-5-2.3a.47.47,0,0,0-.66.57c.08.32.15.65.23,1a1.14,1.14,0,0,0,.75.88L14,14Zm3.21,3.62L5.63,38.93c-1.06,2-6.37-.51-5.54-2.59L9,13.77l.33.17h0l3.78,1.76,3.78,1.76h0l.23.1ZM4.56,33.13a.56.56,0,0,0-.74.27l-1,2.24a.56.56,0,0,0,.26.74l.66.31a.57.57,0,0,0,.74-.27l1-2.25a.57.57,0,0,0-.27-.73l-.66-.31Zm7.05-30.6L24.08,8.34C25.44,1.32,16.12-3,11.61,2.53Z"/></svg>