<svg id="Layer_1" data-name="Layer 1" xmlns="http://www.w3.org/2000/svg" viewBox="0 0 40.16 34.53"><defs><style>.cls-1{fill:#fff;}</style></defs><title>Conference_Objectives_Icons</title><path class="cls-1" d="M30.87,9.29h-.15C29.92,3.35,25.39,0,19.94,0s-10,3.35-10.8,9.29H9a9,9,0,0,0-.34,18v-3a6.09,6.09,0,0,1,.35-12.17,5.59,5.59,0,0,1,1.17.16l1.82.37V10.87a8.16,8.16,0,0,1,8.17-8,8.07,8.07,0,0,1,8.16,8v1.84L30,12.33a4,4,0,0,1,1-.17,6.2,6.2,0,0,1,6.2,6.09c0,3.35-2.52,6.08-5.49,6.08v3c4.46,0,8.46-4,8.46-9A9.23,9.23,0,0,0,30.87,9.29Z"/><path class="cls-1" d="M25.9,22.84l1.88-2.32-2.24-2.2-2.42,2a7.31,7.31,0,0,0-1.19-.5l-.2-3.08H18.54l-.3,3.06a6.48,6.48,0,0,0-1.22.49l-2.4-1.91L12.48,20.5l1.87,2.3a8.06,8.06,0,0,0-.72,1.28l-3.08.35v2.95l3,.39a6.79,6.79,0,0,0,.62,1.41L12.39,31.3l2.27,2.25,2.09-1.7c.47.27,1,.17,1.48.32l.28,2.36h3.18l.23-2.37a6,6,0,0,0,1.47-.47l2.09,1.86,2.2-2.2-1.74-2.18a7.94,7.94,0,0,0,.83-1.4l3.08-.35v-3l-3.23-.35A7.39,7.39,0,0,0,25.9,22.84Zm-4.22,5.8a3,3,0,0,1-4.12-4.13,3.08,3.08,0,0,1,2.28-1.4,3,3,0,0,1,3.24,3.25A3.06,3.06,0,0,1,21.68,28.64Z"/></svg>