<svg id="Layer_1" data-name="Layer 1" xmlns="http://www.w3.org/2000/svg" viewBox="0 0 61.64 24.29"><defs><style>.cls-1,.cls-2{fill:#fff;}.cls-2{font-size:10px;font-family:HelveticaNeue-Light, Helvetica Neue;font-weight:300;}</style></defs><title>Conference_Objectives_Icons</title><g id="eDU9zH"><path class="cls-1" d="M.18,24.29V24c.17,0,.33,0,.47-.08a1,1,0,0,0,.71-1v-7c0-.92-.25-1.2-1.17-1.33v-.31c.75,0,1.49,0,2.22,0,.09,0,.2.15.24.25q.92,2.39,1.81,4.77l1.28,3.36a1.73,1.73,0,0,0,.12.26c.29-.75.56-1.44.82-2.14.79-2.08,1.58-4.15,2.36-6.23a.38.38,0,0,1,.43-.29h2.13v.31l-.18,0a1,1,0,0,0-1,1.07c0,.65,0,1.3,0,1.94,0,1.76,0,3.52,0,5.29a1,1,0,0,0,.51,1,1,1,0,0,0,1.41-.44c.31-.67.57-1.38.82-2.08.79-2.17,1.58-4.35,2.33-6.54a1,1,0,0,1,.95-.75,1.67,1.67,0,0,1,.11.23q1.68,4.38,3.38,8.77a2.86,2.86,0,0,0,.22.47.93.93,0,0,0,1,.47,1,1,0,0,0,.78-.78,2,2,0,0,0,0-.42v-6.8c0-1-.18-1.27-1.21-1.45v-.3h7.06c.24,0,.37.06.44.3.2.63.44,1.26.65,1.89,0,.08,0,.19,0,.28a.64.64,0,0,1-.22-.14c-.25-.29-.48-.59-.72-.88a3,3,0,0,0-2.28-1.1c-.61,0-1.21,0-1.81,0a1,1,0,0,0-1,1c0,1,0,2.09,0,3.13,0,.17.07.21.22.21.69,0,1.38,0,2.06,0a1.26,1.26,0,0,0,1.35-1.27c0-.14,0-.28,0-.43.23-.1.31,0,.31.21,0,1.14,0,2.27,0,3.41,0,.23-.07.3-.3.22,0-.18-.05-.36-.08-.54a1.26,1.26,0,0,0-1.24-1.18c-.72,0-1.45,0-2.18,0a.3.3,0,0,0-.18.21c0,1.17,0,2.35,0,3.53a1,1,0,0,0,1,1c.53,0,1.07,0,1.6,0A3.49,3.49,0,0,0,28,22.81c.31-.34.59-.7.88-1.06s.27-.23.47,0a10.17,10.17,0,0,0,1.2,1.34,3.66,3.66,0,0,0,3.29.77,1.84,1.84,0,0,0,1.53-1.73,1.78,1.78,0,0,0-1.11-2c-.51-.23-1.06-.39-1.58-.59a18.65,18.65,0,0,1-2-.79,2.29,2.29,0,0,1-1.36-2.31,2.16,2.16,0,0,1,1.44-2,3.77,3.77,0,0,1,2.39-.13c.58.16,1.15.4,1.74-.08l.22.56.61,1.74a.92.92,0,0,1,0,.28h-.09c-.2-.28-.39-.57-.61-.83a3.57,3.57,0,0,0-3.2-1.43,1.75,1.75,0,0,0-1.68,1.29,1.78,1.78,0,0,0,.8,2.13,15.69,15.69,0,0,0,2.11.89,17.88,17.88,0,0,1,1.69.64A2.38,2.38,0,0,1,36,22.57a2.48,2.48,0,0,1-1.85,1.59l-.53.13h-1c-.31-.08-.61-.15-.91-.25-.61-.19-1.22-.36-1.76.24l-.75-2.05h-.07l-.75,2.06H17.76l0-.36h.41c.74,0,1-.43.76-1.14s-.49-1.25-.71-1.89a.39.39,0,0,0-.44-.31H14.44c-.56,0-.57,0-.76.53S13.21,22.38,13,23a.68.68,0,0,0,.73.91h.55v.36H8.23V24l.11,0c.94-.07,1.23-.38,1.23-1.31V14.88c0-.09,0-.19,0-.38l-.13.27L7.41,20c-.54,1.42-1.09,2.85-1.64,4.27H5.52a.83.83,0,0,0,0-.15L1.92,14.79c0-.07-.07-.13-.12-.22a.17.17,0,0,0,0,.07c0,2.77,0,5.55,0,8.32a1,1,0,0,0,.88,1l.29,0v.34ZM16,14.86,14,20.16H18Z"/><path class="cls-1" d="M44.68,24.29v-.36h.51a1,1,0,0,0,1.05-1c0-.7,0-1.39,0-2.09V15.73c0-.78-.26-1.08-1-1.23-.1,0-.17-.14-.26-.22l0-.09.28,0,4.24,0a4.41,4.41,0,0,1,1.86.36,2.21,2.21,0,0,1,1.39,2.19,2.28,2.28,0,0,1-1.48,2.2,6.92,6.92,0,0,1-.92.25l-.33.06c.39.69.76,1.35,1.14,2s.71,1.22,1,1.85a1.4,1.4,0,0,0,1.3.82l.22,0,0,.34h-2s0-.08,0-.12l-2.63-4.75a.41.41,0,0,0-.29-.16c-.5,0-1,0-1.5,0-.18,0-.26,0-.25.24,0,1.14,0,2.29,0,3.44a1,1,0,0,0,1,1h.57l0,.36Zm2.45-5.42c1,0,2,0,3,0a1.51,1.51,0,0,0,1.12-.56,2.44,2.44,0,0,0,.42-2.4A1.85,1.85,0,0,0,50,14.58a13.63,13.63,0,0,0-2-.05.91.91,0,0,0-.86.86C47.11,16.54,47.13,17.69,47.13,18.87Z"/><path class="cls-1" d="M57,24.29l-.08,0a3.87,3.87,0,0,1-3.39-2.78,6.19,6.19,0,0,1,.25-5.07,3.73,3.73,0,0,1,3.54-2.22A3.78,3.78,0,0,1,61,16.44a11.94,11.94,0,0,1,.58,1.81,3,3,0,0,1,.07.32v1.29c-.06.31-.1.63-.18.93A4.38,4.38,0,0,1,58.8,24a10.2,10.2,0,0,1-1.09.27Zm-3-5.05a6.08,6.08,0,0,0,.81,3.2,2.83,2.83,0,0,0,4.93.1,5.38,5.38,0,0,0,.87-2.75A6.19,6.19,0,0,0,59.85,16a2.83,2.83,0,0,0-5,.1A6.2,6.2,0,0,0,54.08,19.24Z"/><path class="cls-1" d="M38,24.29l0-.36h.53a1,1,0,0,0,1-1q0-3.66,0-7.31a1,1,0,0,0-1.07-1.08h-2.4a.31.31,0,0,1-.35-.25c-.21-.61-.43-1.21-.64-1.83a1.17,1.17,0,0,1,0-.26.67.67,0,0,1,.22.13c.14.17.25.36.38.53a3.13,3.13,0,0,0,2.69,1.34h5.34c.33,0,.49.08.58.41.19.66.44,1.31.67,2l-.07.08c-.09-.05-.2-.07-.26-.15-.23-.31-.42-.65-.65-1a2.77,2.77,0,0,0-2.81-1,.92.92,0,0,0-.78.94q0,3.72,0,7.44a1,1,0,0,0,1,1H42v.36Z"/></g><text class="cls-2" transform="translate(0 8.57)">Produced By:</text></svg>