<svg id="Layer_1" data-name="Layer 1" xmlns="http://www.w3.org/2000/svg" viewBox="0 0 41.39 47.33"><defs><style>.cls-1{fill:#fff;}</style></defs><title>Conference_Objectives_Icons</title><path class="cls-1" d="M32.66,18.14c-.84-9.88-12-9.74-12-9.74s-11.12-.14-12,9.74c-.8,9.45,5,8.33,6.75,17.29H25.91C27.63,26.47,33.45,27.59,32.66,18.14Z"/><path class="cls-1" d="M28.24,8.13A.88.88,0,0,0,29,7.67l2.07-3.92a.85.85,0,0,0-.36-1.17.87.87,0,0,0-1.17.36L27.48,6.86A.87.87,0,0,0,27.84,8,.85.85,0,0,0,28.24,8.13Z"/><path class="cls-1" d="M37.07,9.27,33.4,11.76a.88.88,0,0,0-.23,1.2.86.86,0,0,0,.72.38.88.88,0,0,0,.49-.15L38,10.7a.86.86,0,0,0-1-1.43Z"/><path class="cls-1" d="M35.55,27.12a.87.87,0,1,0-.64,1.61L39,30.36a.87.87,0,0,0,.64-1.61Z"/><path class="cls-1" d="M35.23,19.44a.86.86,0,0,0,.86.86h4.43a.87.87,0,1,0,0-1.73H36.09A.86.86,0,0,0,35.23,19.44Z"/><path class="cls-1" d="M21.44,5.3V.87a.87.87,0,1,0-1.73,0V5.3a.87.87,0,0,0,1.73,0Z"/><path class="cls-1" d="M13.15,8.13a.85.85,0,0,0,.4-.1.87.87,0,0,0,.36-1.17L11.84,2.94a.87.87,0,0,0-1.17-.36.85.85,0,0,0-.36,1.17l2.07,3.92A.88.88,0,0,0,13.15,8.13Z"/><path class="cls-1" d="M4.32,9.27a.86.86,0,0,0-1,1.43L7,13.19a.88.88,0,0,0,.49.15A.86.86,0,0,0,8.22,13,.88.88,0,0,0,8,11.76Z"/><path class="cls-1" d="M2.36,30.36l4.12-1.63a.87.87,0,1,0-.64-1.61L1.72,28.75a.87.87,0,0,0,.64,1.61Z"/><path class="cls-1" d="M6.16,19.44a.86.86,0,0,0-.86-.87H.87a.87.87,0,1,0,0,1.73H5.3A.86.86,0,0,0,6.16,19.44Z"/><path class="cls-1" d="M25,37H16.38c-1,0-1.79.56-1.79,1.26s.8,1.26,1.79,1.26H25c1,0,1.79-.56,1.79-1.26S26,37,25,37Z"/><path class="cls-1" d="M26.8,42.06c0-.71-.8-1.29-1.79-1.29H16.38c-1,0-1.79.58-1.79,1.29s.8,1.29,1.79,1.29H25C26,43.35,26.8,42.77,26.8,42.06Z"/><path class="cls-1" d="M18.19,44.47a1.47,1.47,0,1,0,0,2.86h5a1.47,1.47,0,1,0,0-2.86Z"/></svg>